<mxfile host="app.diagrams.net" modified="2023-02-25T22:03:06.401Z" agent="5.0 (Windows NT 10.0; Win64; x64) AppleWebKit/537.36 (KHTML, like Gecko) Chrome/110.0.0.0 Safari/537.36" etag="Ng9Jmsi2iBGPv_YH9br3" version="20.8.23" type="github">
  <diagram name="Página-1" id="KF-Cbx-AZG5-sI13qmR0">
    <mxGraphModel dx="1114" dy="616" grid="1" gridSize="10" guides="1" tooltips="1" connect="1" arrows="1" fold="1" page="1" pageScale="1" pageWidth="827" pageHeight="1169" math="0" shadow="0">
      <root>
        <mxCell id="0" />
        <mxCell id="1" parent="0" />
        <mxCell id="EgMRJDZLoSg3xOK4FQX7-1" value="&lt;font style=&quot;vertical-align: inherit;&quot;&gt;&lt;font style=&quot;vertical-align: inherit;&quot;&gt;Productos&lt;/font&gt;&lt;/font&gt;" style="rounded=1;arcSize=10;whiteSpace=wrap;html=1;align=center;" vertex="1" parent="1">
          <mxGeometry x="160" y="103" width="100" height="40" as="geometry" />
        </mxCell>
        <mxCell id="EgMRJDZLoSg3xOK4FQX7-2" value="&lt;font style=&quot;vertical-align: inherit;&quot;&gt;&lt;font style=&quot;vertical-align: inherit;&quot;&gt;Código&lt;/font&gt;&lt;/font&gt;" style="ellipse;whiteSpace=wrap;html=1;align=center;fontStyle=4;" vertex="1" parent="1">
          <mxGeometry x="30" y="20" width="100" height="30" as="geometry" />
        </mxCell>
        <mxCell id="EgMRJDZLoSg3xOK4FQX7-4" value="" style="endArrow=none;html=1;rounded=0;entryX=0;entryY=0;entryDx=0;entryDy=0;exitX=1;exitY=1;exitDx=0;exitDy=0;" edge="1" parent="1" source="EgMRJDZLoSg3xOK4FQX7-2" target="EgMRJDZLoSg3xOK4FQX7-1">
          <mxGeometry relative="1" as="geometry">
            <mxPoint x="80" y="140" as="sourcePoint" />
            <mxPoint x="230" y="230" as="targetPoint" />
          </mxGeometry>
        </mxCell>
        <mxCell id="EgMRJDZLoSg3xOK4FQX7-5" value="&lt;font style=&quot;vertical-align: inherit;&quot;&gt;&lt;font style=&quot;vertical-align: inherit;&quot;&gt;Descripción&lt;/font&gt;&lt;/font&gt;" style="ellipse;whiteSpace=wrap;html=1;align=center;" vertex="1" parent="1">
          <mxGeometry x="170" y="10" width="100" height="30" as="geometry" />
        </mxCell>
        <mxCell id="EgMRJDZLoSg3xOK4FQX7-6" value="&lt;font style=&quot;vertical-align: inherit;&quot;&gt;&lt;font style=&quot;vertical-align: inherit;&quot;&gt;Precio&lt;/font&gt;&lt;/font&gt;" style="ellipse;whiteSpace=wrap;html=1;align=center;fontStyle=4;" vertex="1" parent="1">
          <mxGeometry x="290" y="10" width="100" height="30" as="geometry" />
        </mxCell>
        <mxCell id="EgMRJDZLoSg3xOK4FQX7-7" value="&lt;font style=&quot;vertical-align: inherit;&quot;&gt;&lt;font style=&quot;vertical-align: inherit;&quot;&gt;Número_existencia&lt;/font&gt;&lt;/font&gt;" style="ellipse;whiteSpace=wrap;html=1;align=center;dashed=1;" vertex="1" parent="1">
          <mxGeometry x="10" y="90" width="120" height="30" as="geometry" />
        </mxCell>
        <mxCell id="EgMRJDZLoSg3xOK4FQX7-8" value="" style="endArrow=none;html=1;rounded=0;entryX=0.5;entryY=1;entryDx=0;entryDy=0;exitX=0.5;exitY=0;exitDx=0;exitDy=0;" edge="1" parent="1" source="EgMRJDZLoSg3xOK4FQX7-1" target="EgMRJDZLoSg3xOK4FQX7-5">
          <mxGeometry relative="1" as="geometry">
            <mxPoint x="330" y="320" as="sourcePoint" />
            <mxPoint x="490" y="320" as="targetPoint" />
          </mxGeometry>
        </mxCell>
        <mxCell id="EgMRJDZLoSg3xOK4FQX7-9" value="" style="endArrow=none;html=1;rounded=0;entryX=0;entryY=1;entryDx=0;entryDy=0;exitX=1;exitY=0;exitDx=0;exitDy=0;" edge="1" parent="1" source="EgMRJDZLoSg3xOK4FQX7-1" target="EgMRJDZLoSg3xOK4FQX7-6">
          <mxGeometry relative="1" as="geometry">
            <mxPoint x="330" y="320" as="sourcePoint" />
            <mxPoint x="490" y="320" as="targetPoint" />
          </mxGeometry>
        </mxCell>
        <mxCell id="EgMRJDZLoSg3xOK4FQX7-10" value="" style="endArrow=none;html=1;rounded=0;exitX=0;exitY=0.5;exitDx=0;exitDy=0;entryX=1;entryY=0.5;entryDx=0;entryDy=0;" edge="1" parent="1" source="EgMRJDZLoSg3xOK4FQX7-1" target="EgMRJDZLoSg3xOK4FQX7-7">
          <mxGeometry relative="1" as="geometry">
            <mxPoint x="260" y="110" as="sourcePoint" />
            <mxPoint x="130" y="110" as="targetPoint" />
          </mxGeometry>
        </mxCell>
        <mxCell id="EgMRJDZLoSg3xOK4FQX7-14" value="&lt;font style=&quot;vertical-align: inherit;&quot;&gt;&lt;font style=&quot;vertical-align: inherit;&quot;&gt;&lt;font style=&quot;vertical-align: inherit;&quot;&gt;&lt;font style=&quot;vertical-align: inherit;&quot;&gt;Cédula&lt;/font&gt;&lt;/font&gt;&lt;/font&gt;&lt;/font&gt;" style="ellipse;whiteSpace=wrap;html=1;align=center;fontStyle=4;" vertex="1" parent="1">
          <mxGeometry x="460" y="20" width="100" height="30" as="geometry" />
        </mxCell>
        <mxCell id="EgMRJDZLoSg3xOK4FQX7-15" value="&lt;font style=&quot;vertical-align: inherit;&quot;&gt;&lt;font style=&quot;vertical-align: inherit;&quot;&gt;Apellidos&lt;/font&gt;&lt;/font&gt;" style="ellipse;whiteSpace=wrap;html=1;align=center;" vertex="1" parent="1">
          <mxGeometry x="590" y="20" width="100" height="30" as="geometry" />
        </mxCell>
        <mxCell id="EgMRJDZLoSg3xOK4FQX7-16" value="&lt;font style=&quot;vertical-align: inherit;&quot;&gt;&lt;font style=&quot;vertical-align: inherit;&quot;&gt;&lt;font style=&quot;vertical-align: inherit;&quot;&gt;&lt;font style=&quot;vertical-align: inherit;&quot;&gt;Nombres&lt;/font&gt;&lt;/font&gt;&lt;/font&gt;&lt;/font&gt;" style="ellipse;whiteSpace=wrap;html=1;align=center;" vertex="1" parent="1">
          <mxGeometry x="710" y="30" width="100" height="30" as="geometry" />
        </mxCell>
        <mxCell id="EgMRJDZLoSg3xOK4FQX7-17" value="&lt;font style=&quot;vertical-align: inherit;&quot;&gt;&lt;font style=&quot;vertical-align: inherit;&quot;&gt;&lt;font style=&quot;vertical-align: inherit;&quot;&gt;&lt;font style=&quot;vertical-align: inherit;&quot;&gt;Dirección&lt;/font&gt;&lt;/font&gt;&lt;/font&gt;&lt;/font&gt;" style="ellipse;whiteSpace=wrap;html=1;align=center;" vertex="1" parent="1">
          <mxGeometry x="710" y="82" width="100" height="28" as="geometry" />
        </mxCell>
        <mxCell id="EgMRJDZLoSg3xOK4FQX7-20" value="" style="endArrow=none;html=1;rounded=0;entryX=0.5;entryY=0;entryDx=0;entryDy=0;exitX=0.5;exitY=1;exitDx=0;exitDy=0;" edge="1" parent="1" source="EgMRJDZLoSg3xOK4FQX7-14" target="EgMRJDZLoSg3xOK4FQX7-45">
          <mxGeometry relative="1" as="geometry">
            <mxPoint x="408" y="312" as="sourcePoint" />
            <mxPoint x="578" y="103" as="targetPoint" />
          </mxGeometry>
        </mxCell>
        <mxCell id="EgMRJDZLoSg3xOK4FQX7-23" value="" style="endArrow=none;html=1;rounded=0;exitX=1;exitY=1;exitDx=0;exitDy=0;entryX=1;entryY=1;entryDx=0;entryDy=0;" edge="1" parent="1" source="EgMRJDZLoSg3xOK4FQX7-27" target="EgMRJDZLoSg3xOK4FQX7-45">
          <mxGeometry relative="1" as="geometry">
            <mxPoint x="490" y="80" as="sourcePoint" />
            <mxPoint x="628" y="143" as="targetPoint" />
          </mxGeometry>
        </mxCell>
        <mxCell id="EgMRJDZLoSg3xOK4FQX7-24" value="" style="endArrow=none;html=1;rounded=0;entryX=0;entryY=0.5;entryDx=0;entryDy=0;exitX=1;exitY=0;exitDx=0;exitDy=0;exitPerimeter=0;" edge="1" parent="1" source="EgMRJDZLoSg3xOK4FQX7-45" target="EgMRJDZLoSg3xOK4FQX7-16">
          <mxGeometry relative="1" as="geometry">
            <mxPoint x="628" y="103" as="sourcePoint" />
            <mxPoint x="538" y="112" as="targetPoint" />
          </mxGeometry>
        </mxCell>
        <mxCell id="EgMRJDZLoSg3xOK4FQX7-25" value="" style="endArrow=none;html=1;rounded=0;entryX=0.32;entryY=0.967;entryDx=0;entryDy=0;exitX=0.75;exitY=0;exitDx=0;exitDy=0;entryPerimeter=0;" edge="1" parent="1" source="EgMRJDZLoSg3xOK4FQX7-45" target="EgMRJDZLoSg3xOK4FQX7-15">
          <mxGeometry relative="1" as="geometry">
            <mxPoint x="603" y="103" as="sourcePoint" />
            <mxPoint x="688" y="112" as="targetPoint" />
          </mxGeometry>
        </mxCell>
        <mxCell id="EgMRJDZLoSg3xOK4FQX7-26" value="" style="endArrow=none;html=1;rounded=0;exitX=0;exitY=0.5;exitDx=0;exitDy=0;entryX=1;entryY=0.5;entryDx=0;entryDy=0;" edge="1" parent="1" source="EgMRJDZLoSg3xOK4FQX7-17" target="EgMRJDZLoSg3xOK4FQX7-45">
          <mxGeometry relative="1" as="geometry">
            <mxPoint x="638" y="92" as="sourcePoint" />
            <mxPoint x="628" y="123" as="targetPoint" />
          </mxGeometry>
        </mxCell>
        <mxCell id="EgMRJDZLoSg3xOK4FQX7-27" value="&lt;font style=&quot;vertical-align: inherit;&quot;&gt;&lt;font style=&quot;vertical-align: inherit;&quot;&gt;Teléfono&lt;/font&gt;&lt;/font&gt;" style="ellipse;shape=doubleEllipse;margin=3;whiteSpace=wrap;html=1;align=center;" vertex="1" parent="1">
          <mxGeometry x="710" y="130" width="100" height="30" as="geometry" />
        </mxCell>
        <mxCell id="EgMRJDZLoSg3xOK4FQX7-28" value="&lt;font style=&quot;vertical-align: inherit;&quot;&gt;&lt;font style=&quot;vertical-align: inherit;&quot;&gt;&lt;font style=&quot;vertical-align: inherit;&quot;&gt;&lt;font style=&quot;vertical-align: inherit;&quot;&gt;Compra&lt;/font&gt;&lt;/font&gt;&lt;/font&gt;&lt;/font&gt;" style="shape=rhombus;perimeter=rhombusPerimeter;whiteSpace=wrap;html=1;align=center;" vertex="1" parent="1">
          <mxGeometry x="370" y="103" width="80" height="40" as="geometry" />
        </mxCell>
        <mxCell id="EgMRJDZLoSg3xOK4FQX7-29" value="" style="endArrow=none;html=1;rounded=0;exitX=1;exitY=0.5;exitDx=0;exitDy=0;entryX=0;entryY=0.5;entryDx=0;entryDy=0;" edge="1" parent="1" source="EgMRJDZLoSg3xOK4FQX7-1" target="EgMRJDZLoSg3xOK4FQX7-28">
          <mxGeometry relative="1" as="geometry">
            <mxPoint x="330" y="313" as="sourcePoint" />
            <mxPoint x="490" y="313" as="targetPoint" />
          </mxGeometry>
        </mxCell>
        <mxCell id="EgMRJDZLoSg3xOK4FQX7-30" value="N" style="resizable=0;html=1;align=right;verticalAlign=bottom;" connectable="0" vertex="1" parent="EgMRJDZLoSg3xOK4FQX7-29">
          <mxGeometry x="1" relative="1" as="geometry" />
        </mxCell>
        <mxCell id="EgMRJDZLoSg3xOK4FQX7-31" value="" style="endArrow=none;html=1;rounded=0;exitX=0;exitY=0.5;exitDx=0;exitDy=0;entryX=1;entryY=0.5;entryDx=0;entryDy=0;" edge="1" parent="1" source="EgMRJDZLoSg3xOK4FQX7-45" target="EgMRJDZLoSg3xOK4FQX7-28">
          <mxGeometry relative="1" as="geometry">
            <mxPoint x="528" y="123" as="sourcePoint" />
            <mxPoint x="560" y="333" as="targetPoint" />
          </mxGeometry>
        </mxCell>
        <mxCell id="EgMRJDZLoSg3xOK4FQX7-32" value="N" style="resizable=0;html=1;align=right;verticalAlign=bottom;" connectable="0" vertex="1" parent="EgMRJDZLoSg3xOK4FQX7-31">
          <mxGeometry x="1" relative="1" as="geometry" />
        </mxCell>
        <mxCell id="EgMRJDZLoSg3xOK4FQX7-42" value="&lt;font style=&quot;vertical-align: inherit;&quot;&gt;&lt;font style=&quot;vertical-align: inherit;&quot;&gt;Fecha&lt;/font&gt;&lt;/font&gt;" style="ellipse;whiteSpace=wrap;html=1;align=center;" vertex="1" parent="1">
          <mxGeometry x="360" y="60" width="60" height="20" as="geometry" />
        </mxCell>
        <mxCell id="EgMRJDZLoSg3xOK4FQX7-43" value="" style="endArrow=none;html=1;rounded=0;entryX=0.5;entryY=1;entryDx=0;entryDy=0;exitX=0.338;exitY=0.2;exitDx=0;exitDy=0;exitPerimeter=0;" edge="1" parent="1" source="EgMRJDZLoSg3xOK4FQX7-28" target="EgMRJDZLoSg3xOK4FQX7-42">
          <mxGeometry relative="1" as="geometry">
            <mxPoint x="330" y="300" as="sourcePoint" />
            <mxPoint x="490" y="300" as="targetPoint" />
          </mxGeometry>
        </mxCell>
        <mxCell id="EgMRJDZLoSg3xOK4FQX7-45" value="&lt;font style=&quot;vertical-align: inherit;&quot;&gt;&lt;font style=&quot;vertical-align: inherit;&quot;&gt;Clientes&lt;/font&gt;&lt;/font&gt;" style="rounded=1;arcSize=10;whiteSpace=wrap;html=1;align=center;" vertex="1" parent="1">
          <mxGeometry x="530" y="103" width="100" height="40" as="geometry" />
        </mxCell>
        <mxCell id="EgMRJDZLoSg3xOK4FQX7-47" value="&lt;font style=&quot;vertical-align: inherit;&quot;&gt;&lt;font style=&quot;vertical-align: inherit;&quot;&gt;Proveedores&lt;/font&gt;&lt;/font&gt;" style="rounded=1;arcSize=10;whiteSpace=wrap;html=1;align=center;" vertex="1" parent="1">
          <mxGeometry x="440" y="315" width="100" height="40" as="geometry" />
        </mxCell>
        <mxCell id="EgMRJDZLoSg3xOK4FQX7-59" style="edgeStyle=orthogonalEdgeStyle;rounded=0;orthogonalLoop=1;jettySize=auto;html=1;entryX=0;entryY=0.25;entryDx=0;entryDy=0;" edge="1" parent="1" source="EgMRJDZLoSg3xOK4FQX7-48" target="EgMRJDZLoSg3xOK4FQX7-47">
          <mxGeometry relative="1" as="geometry">
            <mxPoint x="440" y="315" as="targetPoint" />
            <Array as="points" />
          </mxGeometry>
        </mxCell>
        <mxCell id="EgMRJDZLoSg3xOK4FQX7-48" value="&lt;font style=&quot;vertical-align: inherit;&quot;&gt;&lt;font style=&quot;vertical-align: inherit;&quot;&gt;Cédula&lt;/font&gt;&lt;/font&gt;" style="ellipse;whiteSpace=wrap;html=1;align=center;fontStyle=4;" vertex="1" parent="1">
          <mxGeometry x="240" y="315" width="100" height="30" as="geometry" />
        </mxCell>
        <mxCell id="EgMRJDZLoSg3xOK4FQX7-56" style="edgeStyle=orthogonalEdgeStyle;rounded=0;orthogonalLoop=1;jettySize=auto;html=1;entryX=0.5;entryY=1;entryDx=0;entryDy=0;" edge="1" parent="1" source="EgMRJDZLoSg3xOK4FQX7-49" target="EgMRJDZLoSg3xOK4FQX7-47">
          <mxGeometry relative="1" as="geometry" />
        </mxCell>
        <mxCell id="EgMRJDZLoSg3xOK4FQX7-49" value="&lt;font style=&quot;vertical-align: inherit;&quot;&gt;&lt;font style=&quot;vertical-align: inherit;&quot;&gt;Apellidos&lt;/font&gt;&lt;/font&gt;" style="ellipse;whiteSpace=wrap;html=1;align=center;" vertex="1" parent="1">
          <mxGeometry x="470" y="435" width="100" height="30" as="geometry" />
        </mxCell>
        <mxCell id="EgMRJDZLoSg3xOK4FQX7-55" style="edgeStyle=orthogonalEdgeStyle;rounded=0;orthogonalLoop=1;jettySize=auto;html=1;entryX=1;entryY=1;entryDx=0;entryDy=0;" edge="1" parent="1" source="EgMRJDZLoSg3xOK4FQX7-50" target="EgMRJDZLoSg3xOK4FQX7-47">
          <mxGeometry relative="1" as="geometry" />
        </mxCell>
        <mxCell id="EgMRJDZLoSg3xOK4FQX7-50" value="&lt;font style=&quot;vertical-align: inherit;&quot;&gt;&lt;font style=&quot;vertical-align: inherit;&quot;&gt;Dirección&lt;/font&gt;&lt;/font&gt;" style="ellipse;whiteSpace=wrap;html=1;align=center;" vertex="1" parent="1">
          <mxGeometry x="590" y="405" width="100" height="30" as="geometry" />
        </mxCell>
        <mxCell id="EgMRJDZLoSg3xOK4FQX7-57" style="edgeStyle=orthogonalEdgeStyle;rounded=0;orthogonalLoop=1;jettySize=auto;html=1;entryX=0.25;entryY=1;entryDx=0;entryDy=0;" edge="1" parent="1" source="EgMRJDZLoSg3xOK4FQX7-51" target="EgMRJDZLoSg3xOK4FQX7-47">
          <mxGeometry relative="1" as="geometry" />
        </mxCell>
        <mxCell id="EgMRJDZLoSg3xOK4FQX7-51" value="&lt;font style=&quot;vertical-align: inherit;&quot;&gt;&lt;font style=&quot;vertical-align: inherit;&quot;&gt;Ciudad&lt;/font&gt;&lt;/font&gt;" style="ellipse;whiteSpace=wrap;html=1;align=center;" vertex="1" parent="1">
          <mxGeometry x="310" y="415" width="100" height="30" as="geometry" />
        </mxCell>
        <mxCell id="EgMRJDZLoSg3xOK4FQX7-54" style="edgeStyle=orthogonalEdgeStyle;rounded=0;orthogonalLoop=1;jettySize=auto;html=1;entryX=1;entryY=0.5;entryDx=0;entryDy=0;" edge="1" parent="1" source="EgMRJDZLoSg3xOK4FQX7-52" target="EgMRJDZLoSg3xOK4FQX7-47">
          <mxGeometry relative="1" as="geometry" />
        </mxCell>
        <mxCell id="EgMRJDZLoSg3xOK4FQX7-52" value="&lt;font style=&quot;vertical-align: inherit;&quot;&gt;&lt;font style=&quot;vertical-align: inherit;&quot;&gt;Teléfono&lt;/font&gt;&lt;/font&gt;" style="ellipse;shape=doubleEllipse;margin=3;whiteSpace=wrap;html=1;align=center;" vertex="1" parent="1">
          <mxGeometry x="630" y="335" width="100" height="30" as="geometry" />
        </mxCell>
        <mxCell id="EgMRJDZLoSg3xOK4FQX7-58" style="edgeStyle=orthogonalEdgeStyle;rounded=0;orthogonalLoop=1;jettySize=auto;html=1;entryX=0;entryY=1;entryDx=0;entryDy=0;" edge="1" parent="1" source="EgMRJDZLoSg3xOK4FQX7-53" target="EgMRJDZLoSg3xOK4FQX7-47">
          <mxGeometry relative="1" as="geometry" />
        </mxCell>
        <mxCell id="EgMRJDZLoSg3xOK4FQX7-53" value="&lt;font style=&quot;vertical-align: inherit;&quot;&gt;&lt;font style=&quot;vertical-align: inherit;&quot;&gt;Nombre&lt;/font&gt;&lt;/font&gt;" style="ellipse;whiteSpace=wrap;html=1;align=center;" vertex="1" parent="1">
          <mxGeometry x="290" y="355" width="100" height="40" as="geometry" />
        </mxCell>
        <mxCell id="EgMRJDZLoSg3xOK4FQX7-60" value="&lt;font style=&quot;vertical-align: inherit;&quot;&gt;&lt;font style=&quot;vertical-align: inherit;&quot;&gt;Suministra&lt;/font&gt;&lt;/font&gt;" style="shape=rhombus;perimeter=rhombusPerimeter;whiteSpace=wrap;html=1;align=center;" vertex="1" parent="1">
          <mxGeometry x="300" y="210" width="120" height="40" as="geometry" />
        </mxCell>
        <mxCell id="EgMRJDZLoSg3xOK4FQX7-63" value="" style="endArrow=none;html=1;rounded=0;exitX=0.5;exitY=1;exitDx=0;exitDy=0;entryX=0;entryY=0.5;entryDx=0;entryDy=0;" edge="1" parent="1" source="EgMRJDZLoSg3xOK4FQX7-1" target="EgMRJDZLoSg3xOK4FQX7-60">
          <mxGeometry relative="1" as="geometry">
            <mxPoint x="330" y="300" as="sourcePoint" />
            <mxPoint x="490" y="300" as="targetPoint" />
          </mxGeometry>
        </mxCell>
        <mxCell id="EgMRJDZLoSg3xOK4FQX7-64" value="N" style="resizable=0;html=1;align=right;verticalAlign=bottom;" connectable="0" vertex="1" parent="EgMRJDZLoSg3xOK4FQX7-63">
          <mxGeometry x="1" relative="1" as="geometry" />
        </mxCell>
        <mxCell id="EgMRJDZLoSg3xOK4FQX7-65" value="" style="endArrow=none;html=1;rounded=0;exitX=0.5;exitY=0;exitDx=0;exitDy=0;entryX=1;entryY=0.5;entryDx=0;entryDy=0;" edge="1" parent="1" source="EgMRJDZLoSg3xOK4FQX7-47" target="EgMRJDZLoSg3xOK4FQX7-60">
          <mxGeometry relative="1" as="geometry">
            <mxPoint x="490" y="180" as="sourcePoint" />
            <mxPoint x="580" y="267" as="targetPoint" />
          </mxGeometry>
        </mxCell>
        <mxCell id="EgMRJDZLoSg3xOK4FQX7-66" value="N" style="resizable=0;html=1;align=right;verticalAlign=bottom;" connectable="0" vertex="1" parent="EgMRJDZLoSg3xOK4FQX7-65">
          <mxGeometry x="1" relative="1" as="geometry" />
        </mxCell>
      </root>
    </mxGraphModel>
  </diagram>
</mxfile>
